# Blender v2.79 (sub 0) OBJ File: 'chair.blend'
# www.blender.org
mtllib chair.mtl
o Icosphere.000_Icosphere.000
v -0.210601 0.430471 0.422483
v -0.206863 0.486060 -0.093869
v -0.207289 0.447128 -0.095124
v -0.284874 0.431296 0.422034
v -0.281137 0.486885 -0.094318
v -0.281562 0.447954 -0.095573
v -0.233675 0.469663 0.423597
v -0.284449 0.470228 0.423290
v -0.028776 0.467387 0.424835
v -0.052059 0.484341 -0.092932
v -0.055371 0.467683 0.424675
v -0.025888 0.445113 -0.094029
v -0.052483 0.445409 -0.094189
v -0.027138 1.102979 0.481538
v -0.051207 0.640222 0.362207
v -0.053734 1.102870 0.481400
v -0.232049 1.102138 0.480459
v -0.284053 0.415195 0.318661
v -0.282823 1.101930 0.480192
v -0.055795 0.428751 0.423420
v -0.029201 0.428456 0.423579
v -0.159402 0.468838 0.424046
v -0.210176 0.469402 0.423740
v -0.156514 0.446565 -0.094816
v -0.282983 1.092213 0.517911
v -0.284214 0.405478 0.356379
v -0.206177 0.629867 0.399109
v -0.208550 1.102235 0.480584
v -0.206021 0.639587 0.361389
v -0.230787 0.447389 -0.095266
v -0.230363 0.486322 -0.094011
v -0.234100 0.430732 0.422343
v -0.159827 0.429907 0.422791
v -0.156090 0.485496 -0.093562
v -0.024768 0.630611 0.400066
v -0.051367 0.630502 0.399925
v -0.053894 1.093154 0.519117
v -0.027295 1.093263 0.519257
v -0.157771 1.102443 0.480850
v -0.155404 0.630076 0.399375
v -0.233436 0.405686 0.356647
v -0.233279 0.415403 0.318927
v -0.232207 1.092422 0.518179
v -0.208707 1.092518 0.518303
v -0.157928 1.092726 0.518571
v -0.155244 0.639795 0.361658
v -0.026954 0.404079 0.006935
v -0.277230 0.444612 0.006638
v -0.277643 0.406864 0.005421
v -0.276930 0.446110 -0.039969
v -0.026654 0.405578 -0.039672
v -0.277343 0.408363 -0.041186
v -0.029362 0.391964 0.383432
v -0.279639 0.432496 0.383134
v -0.280050 0.394748 0.381917
v -0.026541 0.441827 0.008154
v -0.279342 0.433992 0.336638
v -0.029066 0.393460 0.336935
v -0.279754 0.396245 0.335419
v -0.028950 0.429712 0.384651
v -0.232656 0.463063 -0.034630
v -0.284575 0.004364 -0.123232
v -0.283432 0.462858 -0.034894
v -0.283597 0.452120 0.002900
v -0.284737 -0.006374 -0.085435
v -0.233963 -0.006168 -0.085171
v -0.233797 0.004570 -0.122965
v -0.232820 0.452325 0.003167
v 0.188181 0.471484 0.343042
v 0.238924 0.470224 0.343737
v 0.218726 -0.014338 0.436617
v -0.221385 0.481649 0.337418
v -0.272131 0.492816 0.372360
v -0.221387 0.491557 0.373058
v -0.241582 -0.002912 0.430298
v -0.292324 -0.001652 0.429603
v 0.238922 0.480132 0.379377
v 0.167979 -0.003171 0.471560
v 0.218724 -0.004430 0.472257
v -0.292330 0.008255 0.465241
v -0.133079 0.429610 0.422953
v -0.129341 0.485199 -0.093400
v -0.129766 0.446268 -0.094656
v -0.081882 0.467977 0.424514
v -0.132654 0.468541 0.424208
v -0.078994 0.445704 -0.094350
v -0.128655 0.630186 0.399518
v -0.131023 1.102552 0.480992
v -0.128493 0.639906 0.361798
v -0.082305 0.429046 0.423261
v -0.078569 0.484635 -0.093095
v -0.080245 1.102761 0.481260
v -0.077876 0.630394 0.399784
v -0.131179 1.092836 0.518712
v -0.080404 1.093045 0.518978
v -0.077716 0.640114 0.362067
v -0.024466 0.649721 0.403652
v -0.279792 0.654304 0.347929
v -0.280138 0.652561 0.402107
v -0.025029 0.597952 0.401983
v -0.280703 0.600792 0.400438
v -0.024682 0.599695 0.347805
v -0.280355 0.602536 0.346260
v -0.027146 1.063039 0.524875
v -0.295724 1.117801 0.524919
v -0.296289 1.066029 0.523251
v -0.295377 1.119544 0.470741
v -0.026797 1.064786 0.470696
v -0.295942 1.067775 0.469072
v -0.026578 1.114811 0.526545
v -0.025464 0.484045 -0.092773
v -0.024610 0.640331 0.362346
v -0.026245 0.443325 -0.038455
v -0.028654 0.431207 0.338153
v 0.167984 -0.013078 0.435921
v -0.241584 0.006996 0.465939
v 0.188177 0.481391 0.378679
v -0.024119 0.651464 0.349474
v -0.026231 1.116556 0.472367
v 0.152200 0.426441 0.424675
v 0.155512 0.443098 -0.092932
v 0.155937 0.482030 -0.091678
v 0.226472 0.425616 0.425125
v 0.229784 0.442274 -0.092484
v 0.230210 0.481205 -0.091230
v 0.176124 0.465111 0.426072
v 0.226896 0.464547 0.426379
v -0.002178 0.467092 0.424997
v 0.001131 0.483749 -0.092613
v 0.000706 0.444818 -0.093868
v -0.000539 1.103089 0.481680
v 0.001988 0.640441 0.362486
v 0.177775 1.103820 0.482619
v 0.228550 1.104029 0.482886
v 0.227319 0.417294 0.321354
v -0.002604 0.428161 0.423741
v 0.101849 0.465936 0.425623
v 0.152624 0.465372 0.425931
v 0.104738 0.443662 -0.093240
v 0.228392 1.094313 0.520606
v 0.227163 0.407577 0.359074
v 0.156643 0.631356 0.401021
v 0.156800 0.641076 0.363301
v 0.154273 1.103724 0.482495
v 0.179435 0.481768 -0.091536
v 0.179011 0.442837 -0.092792
v 0.175698 0.426180 0.424817
v 0.101427 0.427005 0.424371
v 0.105162 0.482594 -0.091986
v 0.001828 0.630721 0.400205
v -0.000699 1.093372 0.519397
v 0.103497 1.103515 0.482228
v 0.105866 0.631149 0.400752
v 0.176545 0.417086 0.321087
v 0.176385 0.407369 0.358805
v 0.177615 1.094104 0.520337
v 0.154114 1.094008 0.520214
v 0.103338 1.093799 0.519946
v 0.106026 0.640868 0.363034
v 0.223735 0.401295 0.008451
v 0.224147 0.439043 0.009669
v 0.224442 0.440540 -0.036941
v 0.224031 0.402793 -0.038158
v 0.221325 0.389179 0.384948
v 0.221735 0.426926 0.386164
v 0.222033 0.428423 0.339668
v 0.221621 0.390676 0.338450
v 0.181116 0.447558 -0.032463
v 0.231893 0.447763 -0.032197
v 0.230750 -0.010730 -0.120535
v 0.231730 0.437025 0.005600
v 0.230587 -0.021468 -0.082738
v 0.179975 -0.010936 -0.120799
v 0.179808 -0.021674 -0.083004
v 0.180952 0.436820 0.005333
v -0.272127 0.482909 0.336722
v 0.074679 0.427302 0.424208
v 0.077989 0.443959 -0.093401
v 0.078414 0.482891 -0.092147
v 0.024330 0.466798 0.425157
v 0.075105 0.466234 0.425463
v 0.027217 0.444524 -0.093707
v 0.079115 0.631038 0.400611
v 0.079276 0.640758 0.362893
v 0.076748 1.103406 0.482087
v 0.023905 0.427866 0.423901
v 0.027643 0.483455 -0.092452
v 0.025970 1.103198 0.481817
v 0.028338 0.630830 0.400343
v 0.076588 1.093689 0.519804
v 0.025813 1.093481 0.519539
v 0.028499 0.640550 0.362625
v 0.231207 0.646881 0.405197
v 0.231554 0.648624 0.351020
v 0.230644 0.595112 0.403527
v 0.230990 0.596855 0.349350
v 0.242001 1.060049 0.526502
v 0.242567 1.111822 0.528172
v 0.242914 1.113566 0.473995
v 0.242347 1.061797 0.472323
vt 0.000000 0.000000
vt 0.000000 0.000000
vt 0.000000 0.000000
vt 0.000000 0.000000
vt 0.000000 0.000000
vt 0.000000 0.000000
vt 0.000000 0.000000
vt 0.000000 0.000000
vt 0.000000 0.000000
vt 0.000000 0.000000
vt 0.000000 0.000000
vt 0.000000 0.000000
vt 0.000000 0.000000
vt 0.000000 0.000000
vt 0.000000 0.000000
vt 0.000000 0.000000
vt 0.000000 0.000000
vt 0.000000 0.000000
vt 0.000000 0.000000
vt 0.000000 0.000000
vt 0.000000 0.000000
vt 0.000000 0.000000
vt 0.000000 0.000000
vt 0.000000 0.000000
vt 0.000000 0.000000
vt 0.000000 0.000000
vt 0.000000 0.000000
vt 0.000000 0.000000
vt 0.000000 0.000000
vt 0.000000 0.000000
vt 0.000000 0.000000
vt 0.000000 0.000000
vt 0.000000 0.000000
vt 0.000000 0.000000
vt 0.000000 0.000000
vt 0.000000 0.000000
vt 0.000000 0.000000
vt 0.000000 0.000000
vt 0.000000 0.000000
vt 0.000000 0.000000
vt 0.000000 0.000000
vt 0.000000 0.000000
vt 0.000000 0.000000
vt 0.000000 0.000000
vt 0.000000 0.000000
vt 0.000000 0.000000
vt 0.000000 0.000000
vt 0.000000 0.000000
vt 0.000000 0.000000
vt 0.000000 0.000000
vt 0.000000 0.000000
vt 0.000000 0.000000
vt 0.000000 0.000000
vt 0.000000 0.000000
vt 0.000000 0.000000
vt 0.000000 0.000000
vt 0.000000 0.000000
vt 0.000000 0.000000
vt 0.000000 0.000000
vt 0.000000 0.000000
vt 0.000000 0.000000
vt 0.000000 0.000000
vt 0.000000 0.000000
vt 0.000000 0.000000
vt 0.000000 0.000000
vt 0.000000 0.000000
vt 0.000000 0.000000
vt 0.000000 0.000000
vt 0.000000 0.000000
vt 0.000000 0.000000
vt 0.000000 0.000000
vt 0.000000 0.000000
vt 0.000000 0.000000
vt 0.000000 0.000000
vt 0.000000 0.000000
vt 0.000000 0.000000
vt 0.000000 0.000000
vt 0.000000 0.000000
vt 0.000000 0.000000
vt 0.000000 0.000000
vt 0.000000 0.000000
vt 0.000000 0.000000
vt 0.000000 0.000000
vt 0.000000 0.000000
vt 0.000000 0.000000
vt 0.000000 0.000000
vt 0.000000 0.000000
vt 0.000000 0.000000
vt 0.000000 0.000000
vt 0.000000 0.000000
vt 0.000000 0.000000
vt 0.000000 0.000000
vt 0.000000 0.000000
vt 0.000000 0.000000
vt 0.000000 0.000000
vt 0.000000 0.000000
vt 0.000000 0.000000
vt 0.000000 0.000000
vt 0.000000 0.000000
vt 0.000000 0.000000
vt 0.000000 0.000000
vt 0.000000 0.000000
vt 0.000000 0.000000
vt 0.000000 0.000000
vt 0.000000 0.000000
vt 0.000000 0.000000
vt 0.000000 0.000000
vt 0.000000 0.000000
vt 0.000000 0.000000
vt 0.000000 0.000000
vt 0.000000 0.000000
vt 0.000000 0.000000
vt 0.000000 0.000000
vt 0.000000 0.000000
vt 0.000000 0.000000
vt 0.000000 0.000000
vt 0.000000 0.000000
vt 0.000000 0.000000
vt 0.000000 0.000000
vt 0.000000 0.000000
vt 0.000000 0.000000
vt 0.000000 0.000000
vt 0.000000 0.000000
vt 0.000000 0.000000
vt 0.000000 0.000000
vt 0.000000 0.000000
vt 0.000000 0.000000
vt 0.000000 0.000000
vt 0.000000 0.000000
vt 0.000000 0.000000
vt 0.000000 0.000000
vt 0.000000 0.000000
vt 0.000000 0.000000
vt 0.000000 0.000000
vt 0.000000 0.000000
vt 0.000000 0.000000
vt 0.000000 0.000000
vt 0.000000 0.000000
vt 0.000000 0.000000
vt 0.000000 0.000000
vt 0.000000 0.000000
vt 0.000000 0.000000
vt 0.000000 0.000000
vt 0.000000 0.000000
vt 0.000000 0.000000
vt 0.000000 0.000000
vt 0.000000 0.000000
vt 0.000000 0.000000
vt 0.000000 0.000000
vt 0.000000 0.000000
vt 0.000000 0.000000
vt 0.000000 0.000000
vt 0.000000 0.000000
vt 0.000000 0.000000
vt 0.000000 0.000000
vt 0.000000 0.000000
vt 0.000000 0.000000
vt 0.000000 0.000000
vt 0.000000 0.000000
vt 0.000000 0.000000
vt 0.000000 0.000000
vt 0.000000 0.000000
vt 0.000000 0.000000
vt 0.000000 0.000000
vt 0.000000 0.000000
vt 0.000000 0.000000
vt 0.000000 0.000000
vt 0.000000 0.000000
vt 0.000000 0.000000
vt 0.000000 0.000000
vt 0.000000 0.000000
vt 0.000000 0.000000
vt 0.000000 0.000000
vt 0.000000 0.000000
vt 0.000000 0.000000
vt 0.000000 0.000000
vt 0.000000 0.000000
vt 0.000000 0.000000
vt 0.000000 0.000000
vt 0.000000 0.000000
vt 0.000000 0.000000
vt 0.000000 0.000000
vt 0.000000 0.000000
vt 0.000000 0.000000
vt 0.000000 0.000000
vt 0.000000 0.000000
vt 0.000000 0.000000
vt 0.000000 0.000000
vt 0.000000 0.000000
vt 0.000000 0.000000
vt 0.000000 0.000000
vt 0.000000 0.000000
vt 0.000000 0.000000
vt 0.000000 0.000000
vt 0.000000 0.000000
vt 0.000000 0.000000
vt 0.000000 0.000000
vt 0.000000 0.000000
vt 0.000000 0.000000
vt 0.000000 0.000000
vn 0.6029 -0.0871 0.7930
vn -0.9939 0.1074 0.0262
vn 0.6072 -0.1518 0.7799
vn 0.0053 -0.9619 -0.2733
vn 0.6030 -0.0871 0.7930
vn -0.9999 0.0111 -0.0060
vn 0.0109 0.9994 0.0322
vn 0.0064 0.0322 -0.9995
vn 0.0041 0.2495 -0.9684
vn 0.0040 0.2495 -0.9684
vn 0.0042 0.2290 -0.9734
vn -0.0109 -0.9994 -0.0322
vn -0.0064 -0.0322 0.9995
vn 0.0064 0.0321 -0.9995
vn -1.0000 0.0026 -0.0036
vn -1.0000 -0.0041 -0.0052
vn 0.9999 -0.0111 0.0060
vn -0.0064 -0.0321 0.9995
vn 0.0053 -0.9684 -0.2495
vn -0.0041 -0.2495 0.9684
vn -0.0053 0.9684 0.2494
vn 1.0000 -0.0026 0.0035
vn -0.0040 -0.2495 0.9684
vn 1.0000 0.0041 0.0052
vn 1.0000 0.0041 0.0053
vn -1.0000 -0.0041 -0.0053
vn -0.0042 -0.2290 0.9734
vn 0.0053 -0.9684 -0.2494
vn -0.9999 0.0111 -0.0061
vn 0.0043 0.1892 -0.9819
vn -1.0000 0.0032 -0.0035
vn -1.0000 0.0031 -0.0034
vn 1.0000 -0.0032 0.0035
vn -0.0053 0.9619 0.2733
vn -0.0044 -0.1892 0.9819
vn 0.0088 -0.1886 -0.9820
vn 0.0276 0.9631 -0.2677
vn -0.0088 0.1886 0.9820
vn -0.9992 0.0395 -0.0111
vn 0.9992 -0.0395 0.0110
vn -0.0109 -0.9994 -0.0323
vn 0.0044 0.1892 -0.9819
vn 1.0000 -0.0032 0.0034
vn -0.0043 -0.1892 0.9819
vn 0.9992 -0.0395 0.0111
vn -0.0276 -0.9631 0.2677
vn -0.0063 -0.0321 0.9995
vn -0.9999 0.0110 -0.0060
vn 0.9999 -0.0110 0.0060
vn -1.0000 0.0032 -0.0034
vn -0.9999 0.0112 -0.0060
usemtl Material.002
s off
f 61/1/1 64/2/1 66/3/1
f 61/1/2 62/4/2 65/5/2
f 67/6/3 61/1/3 65/5/3
f 66/3/4 65/5/4 67/6/4
f 170/7/5 168/8/5 174/9/5
f 171/10/4 175/11/4 169/12/4
f 174/9/3 170/7/3 175/11/3
f 170/7/3 169/12/3 175/11/3
s 1
f 1/13/6 2/14/6 3/15/6
f 4/16/6 5/17/6 6/18/6
f 7/19/7 5/17/7 8/20/7
f 9/21/7 10/22/7 11/23/7
f 10/22/8 12/24/8 13/25/8
f 14/26/9 15/27/9 16/28/10
f 17/29/11 18/30/11 19/31/11
f 20/32/12 12/24/12 21/33/12
f 9/21/13 20/32/13 21/33/13
f 22/34/7 2/14/7 23/35/7
f 2/14/14 24/36/14 3/15/14
f 25/37/15 18/30/15 26/38/15
f 27/39/16 28/40/16 29/41/16
f 7/19/17 30/42/17 31/43/17
f 7/19/18 4/16/13 32/44/18
f 1/13/12 24/36/12 33/45/12
f 22/34/13 1/13/13 33/45/13
f 22/34/17 24/36/17 34/46/17
f 20/32/6 10/22/6 13/25/6
f 4/16/12 30/42/12 32/44/12
f 5/17/8 30/42/8 6/18/8
f 15/27/19 35/47/19 36/48/19
f 37/49/20 35/47/20 38/50/20
f 14/26/21 37/49/21 38/50/21
f 39/51/9 29/41/9 28/40/9
f 29/41/19 40/52/19 27/39/19
f 17/29/22 41/53/22 42/54/22
f 17/29/21 25/37/21 43/55/21
f 44/56/20 40/52/23 45/57/20
f 39/51/21 44/56/21 45/57/21
f 39/51/24 40/52/25 46/58/25
f 36/48/26 16/28/26 15/27/26
f 25/37/27 41/53/27 43/55/27
f 18/30/28 41/53/28 26/38/28
f 47/59/13 48/60/13 49/61/18
f 50/62/14 51/63/8 52/64/14
f 53/65/13 54/66/13 55/67/13
f 48/60/29 52/64/29 49/61/29
f 56/68/7 50/62/7 48/60/7
f 49/61/12 51/63/12 47/59/12
f 57/69/8 58/70/8 59/71/8
f 54/66/6 59/71/6 55/67/6
f 60/72/7 57/69/7 54/66/7
f 55/67/12 58/70/12 53/65/12
f 61/1/30 62/4/30 63/73/30
f 64/2/31 62/4/32 65/5/32
f 61/1/33 66/3/33 67/6/33
f 61/1/34 64/2/34 68/74/34
f 64/2/35 66/3/35 68/74/35
f 62/4/4 66/3/4 65/5/4
f 69/75/36 70/76/36 71/77/36
f 72/78/37 73/79/37 74/80/37
f 72/78/36 75/81/36 76/82/36
f 77/83/38 78/84/38 79/85/38
f 73/79/39 76/82/39 80/86/39
f 77/83/40 71/77/40 70/76/40
f 81/87/6 82/88/6 83/89/6
f 84/90/7 82/88/7 85/91/7
f 82/88/8 86/92/14 83/89/8
f 87/93/26 88/94/16 89/95/26
f 81/87/12 86/92/12 90/96/12
f 84/90/18 81/87/18 90/96/18
f 84/90/17 86/92/17 91/97/17
f 92/98/9 89/95/9 88/94/9
f 89/95/19 93/99/19 87/93/19
f 94/100/20 93/99/20 95/101/20
f 92/98/21 94/100/21 95/101/21
f 92/98/25 93/99/25 96/102/25
f 97/103/7 98/104/7 99/105/7
f 100/106/13 99/105/13 101/107/13
f 101/107/12 102/108/12 100/106/12
f 99/105/6 103/109/6 101/107/29
f 98/104/14 102/108/14 103/109/14
f 104/110/13 105/111/18 106/112/18
f 107/113/8 108/114/8 109/115/8
f 105/111/6 109/115/6 106/112/29
f 110/116/7 107/113/7 105/111/7
f 106/112/41 108/114/41 104/110/41
f 1/13/6 23/35/6 2/14/6
f 4/16/6 8/20/6 5/17/6
f 7/19/7 31/43/7 5/17/7
f 9/21/7 111/117/7 10/22/7
f 10/22/8 111/117/8 12/24/8
f 14/26/9 112/118/9 15/27/9
f 17/29/11 42/54/11 18/30/11
f 20/32/12 13/25/12 12/24/12
f 9/21/13 11/23/18 20/32/13
f 22/34/7 34/46/7 2/14/7
f 2/14/14 34/46/14 24/36/14
f 25/37/15 19/31/15 18/30/15
f 27/39/16 44/56/16 28/40/16
f 7/19/17 32/44/17 30/42/17
f 7/19/18 8/20/13 4/16/13
f 1/13/12 3/15/12 24/36/12
f 22/34/13 23/35/13 1/13/13
f 22/34/17 33/45/17 24/36/17
f 20/32/6 11/23/6 10/22/6
f 4/16/12 6/18/12 30/42/12
f 5/17/8 31/43/8 30/42/8
f 15/27/19 112/118/19 35/47/19
f 37/49/20 36/48/20 35/47/20
f 14/26/21 16/28/21 37/49/21
f 39/51/9 46/58/9 29/41/9
f 29/41/19 46/58/19 40/52/19
f 17/29/22 43/55/22 41/53/22
f 17/29/21 19/31/21 25/37/21
f 44/56/20 27/39/23 40/52/23
f 39/51/21 28/40/21 44/56/21
f 39/51/24 45/57/24 40/52/25
f 36/48/26 37/49/26 16/28/26
f 25/37/27 26/38/27 41/53/27
f 18/30/28 42/54/28 41/53/28
f 47/59/13 56/68/13 48/60/13
f 50/62/14 113/119/14 51/63/8
f 53/65/13 60/72/13 54/66/13
f 48/60/29 50/62/29 52/64/29
f 56/68/7 113/119/7 50/62/7
f 49/61/12 52/64/12 51/63/12
f 57/69/8 114/120/8 58/70/8
f 54/66/6 57/69/6 59/71/6
f 60/72/7 114/120/7 57/69/7
f 55/67/12 59/71/12 58/70/12
f 61/1/42 67/6/42 62/4/42
f 64/2/31 63/73/31 62/4/32
f 61/1/43 68/74/43 66/3/43
f 61/1/34 63/73/34 64/2/34
f 64/2/44 65/5/44 66/3/44
f 62/4/4 67/6/4 66/3/4
f 69/75/39 115/121/39 78/84/39
f 72/78/45 74/80/45 116/122/40
f 76/82/46 116/122/46 80/86/46
f 69/75/39 78/84/39 117/123/39
f 73/79/38 80/86/38 116/122/38
f 71/77/46 79/85/46 78/84/46
f 81/87/6 85/91/6 82/88/6
f 84/90/7 91/97/7 82/88/7
f 82/88/8 91/97/14 86/92/14
f 87/93/26 94/100/16 88/94/16
f 81/87/12 83/89/12 86/92/12
f 84/90/18 85/91/13 81/87/18
f 84/90/17 90/96/17 86/92/17
f 92/98/9 96/102/9 89/95/9
f 89/95/19 96/102/19 93/99/19
f 94/100/20 87/93/20 93/99/20
f 92/98/21 88/94/21 94/100/21
f 92/98/25 95/101/25 93/99/25
f 97/103/7 118/124/7 98/104/7
f 100/106/13 97/103/13 99/105/13
f 101/107/12 103/109/12 102/108/12
f 99/105/6 98/104/6 103/109/6
f 98/104/8 118/124/8 102/108/8
f 104/110/13 110/116/13 105/111/18
f 107/113/8 119/125/8 108/114/8
f 105/111/6 107/113/6 109/115/6
f 110/116/7 119/125/7 107/113/7
f 106/112/41 109/115/41 108/114/41
f 120/126/17 121/127/17 122/128/17
f 123/129/17 124/130/17 125/131/17
f 126/132/7 127/133/7 125/131/7
f 9/21/7 128/134/7 129/135/7
f 129/135/8 130/136/8 12/24/8
f 14/26/9 131/137/9 132/138/9
f 133/139/11 134/140/11 135/141/11
f 136/142/12 21/33/12 12/24/12
f 9/21/13 21/33/13 136/142/13
f 137/143/7 138/144/7 122/128/7
f 122/128/14 121/127/14 139/145/14
f 140/146/22 141/147/22 135/141/22
f 142/148/24 143/149/24 144/150/25
f 126/132/6 145/151/6 146/152/6
f 126/132/13 147/153/13 123/129/18
f 120/126/12 148/154/12 139/145/12
f 137/143/18 148/154/47 120/126/18
f 137/143/48 149/155/6 139/145/6
f 136/142/17 130/136/17 129/135/17
f 123/129/12 147/153/12 146/152/12
f 125/131/8 124/130/14 146/152/8
f 132/138/19 150/156/19 35/47/19
f 151/157/23 38/50/20 35/47/20
f 14/26/21 38/50/21 151/157/21
f 152/158/9 144/150/9 143/149/9
f 143/149/19 142/148/19 153/159/19
f 133/139/15 154/160/15 155/161/15
f 133/139/21 156/162/21 140/146/21
f 157/163/20 158/164/20 153/159/20
f 152/158/21 158/164/21 157/163/21
f 152/158/26 159/165/26 153/159/26
f 150/156/25 132/138/25 131/137/25
f 140/146/27 156/162/27 155/161/27
f 135/141/19 141/147/28 155/161/19
f 47/59/13 160/166/13 161/167/13
f 162/168/8 163/169/8 51/63/8
f 53/65/13 164/170/18 165/171/18
f 161/167/17 160/166/17 163/169/17
f 56/68/7 161/167/7 162/168/7
f 160/166/12 47/59/12 51/63/12
f 166/172/8 167/173/8 58/70/8
f 165/171/17 164/170/49 167/173/17
f 60/72/7 165/171/7 166/172/7
f 164/170/12 53/65/12 58/70/12
f 168/8/42 169/12/42 170/7/42
f 171/10/43 172/174/43 170/7/43
f 168/8/31 173/175/31 174/9/31
f 168/8/34 175/11/34 171/10/34
f 171/10/35 175/11/35 174/9/35
f 170/7/4 172/174/4 174/9/4
f 71/77/46 78/84/46 115/121/46
f 77/83/38 117/123/38 78/84/38
f 72/78/37 176/176/37 73/79/37
f 73/79/39 176/176/39 76/82/39
f 69/75/37 117/123/37 77/83/37
f 69/75/37 77/83/37 70/76/37
f 177/177/17 178/178/17 179/179/17
f 180/180/7 181/181/7 179/179/7
f 179/179/14 178/178/14 182/182/8
f 183/183/25 184/184/25 185/185/25
f 177/177/12 186/186/12 182/182/12
f 180/180/13 186/186/13 177/177/13
f 180/180/6 187/187/6 182/182/6
f 188/188/9 185/185/9 184/184/9
f 184/184/19 183/183/19 189/189/19
f 190/190/23 191/191/23 189/189/20
f 188/188/21 191/191/21 190/190/21
f 188/188/16 192/192/26 189/189/26
f 97/103/7 193/193/7 194/194/7
f 100/106/13 195/195/13 193/193/13
f 195/195/12 100/106/12 102/108/12
f 193/193/17 195/195/17 196/196/17
f 194/194/8 196/196/8 102/108/8
f 118/124/6 102/108/6 100/106/6
f 104/110/13 197/197/13 198/198/13
f 199/199/8 200/200/8 108/114/8
f 198/198/17 197/197/17 200/200/17
f 110/116/7 198/198/7 199/199/7
f 197/197/41 104/110/41 108/114/41
f 119/125/29 108/114/29 104/110/29
f 120/126/17 122/128/17 138/144/17
f 123/129/17 125/131/17 127/133/17
f 126/132/7 125/131/7 145/151/7
f 9/21/7 129/135/7 111/117/7
f 129/135/8 12/24/8 111/117/8
f 14/26/9 132/138/9 112/118/9
f 133/139/11 135/141/11 154/160/11
f 136/142/12 12/24/12 130/136/12
f 9/21/13 136/142/13 128/134/13
f 137/143/7 122/128/7 149/155/7
f 122/128/14 139/145/14 149/155/14
f 140/146/22 135/141/22 134/140/22
f 142/148/24 144/150/25 157/163/25
f 126/132/6 146/152/6 147/153/6
f 126/132/13 123/129/18 127/133/18
f 120/126/12 139/145/12 121/127/12
f 137/143/18 120/126/18 138/144/13
f 137/143/48 139/145/6 148/154/48
f 136/142/17 129/135/17 128/134/17
f 123/129/12 146/152/12 124/130/12
f 125/131/8 146/152/8 145/151/8
f 132/138/19 35/47/19 112/118/19
f 151/157/23 35/47/20 150/156/23
f 14/26/21 151/157/21 131/137/21
f 152/158/9 143/149/9 159/165/9
f 143/149/19 153/159/19 159/165/19
f 133/139/15 155/161/15 156/162/15
f 133/139/21 140/146/21 134/140/21
f 157/163/20 153/159/20 142/148/20
f 152/158/21 157/163/21 144/150/21
f 152/158/26 153/159/26 158/164/26
f 150/156/25 131/137/25 151/157/25
f 140/146/27 155/161/27 141/147/27
f 135/141/19 155/161/19 154/160/19
f 47/59/13 161/167/13 56/68/13
f 162/168/8 51/63/8 113/119/14
f 53/65/13 165/171/18 60/72/13
f 161/167/17 163/169/17 162/168/17
f 56/68/7 162/168/7 113/119/7
f 160/166/12 51/63/12 163/169/12
f 166/172/8 58/70/8 114/120/8
f 165/171/17 167/173/17 166/172/17
f 60/72/7 166/172/7 114/120/7
f 164/170/12 58/70/12 167/173/12
f 168/8/42 170/7/42 173/175/42
f 171/10/43 170/7/43 169/12/43
f 168/8/50 174/9/50 175/11/50
f 168/8/34 171/10/34 169/12/34
f 171/10/35 174/9/35 172/174/35
f 170/7/4 174/9/4 173/175/4
f 73/79/38 116/122/38 74/80/38
f 72/78/36 76/82/36 176/176/36
f 69/75/36 71/77/36 115/121/36
f 72/78/45 116/122/40 75/81/40
f 76/82/46 75/81/46 116/122/46
f 77/83/40 79/85/40 71/77/40
f 177/177/17 179/179/17 181/181/17
f 180/180/7 179/179/7 187/187/7
f 179/179/14 182/182/8 187/187/8
f 183/183/25 185/185/25 190/190/25
f 177/177/12 182/182/12 178/178/12
f 180/180/13 177/177/13 181/181/18
f 180/180/6 182/182/6 186/186/6
f 188/188/9 184/184/9 192/192/9
f 184/184/19 189/189/19 192/192/19
f 190/190/23 189/189/20 183/183/20
f 188/188/21 190/190/21 185/185/21
f 188/188/16 189/189/26 191/191/16
f 97/103/7 194/194/7 118/124/7
f 100/106/13 193/193/13 97/103/13
f 195/195/12 102/108/12 196/196/12
f 193/193/17 196/196/17 194/194/17
f 194/194/8 102/108/8 118/124/8
f 118/124/6 100/106/6 97/103/6
f 104/110/13 198/198/13 110/116/13
f 199/199/8 108/114/8 119/125/8
f 198/198/17 200/200/17 199/199/17
f 110/116/7 199/199/7 119/125/7
f 197/197/41 108/114/41 200/200/41
f 119/125/29 104/110/29 110/116/51
