# Blender v2.79 (sub 0) OBJ File: 'paddle.blend'
# www.blender.org
mtllib paddle.mtl
o Cylinder.002_Cylinder.001
v -0.120210 0.089038 0.025936
v 0.140822 -0.066136 -0.120486
v 0.228214 -0.385565 0.125936
v 0.205228 -0.208295 0.125936
v 0.140822 -0.066136 0.125936
v 0.047751 0.012757 0.125936
v -0.055549 0.012757 0.125936
v -0.148619 -0.066136 0.125936
v -0.213026 -0.208295 0.125936
v -0.236012 -0.385564 0.125936
v -0.213026 -0.562834 0.125936
v -0.148619 -0.704993 0.125936
v -0.055549 -0.783886 0.125936
v 0.047751 -0.783886 0.125936
v 0.140821 -0.704993 0.125936
v 0.205228 -0.562834 0.125936
v -0.003899 -0.385564 0.125936
v 0.047751 0.012757 -0.120486
v -0.055549 0.012757 -0.120486
v -0.148619 -0.066136 -0.120486
v -0.213026 -0.208295 -0.120486
v -0.213026 -0.562834 -0.120486
v -0.148619 -0.704993 -0.120486
v -0.055549 -0.783886 -0.120486
v 0.140821 -0.704993 -0.120486
v 0.228214 -0.385565 -0.120486
v 0.205228 -0.208295 -0.120486
v -0.236012 -0.385564 -0.120486
v 0.047751 -0.783886 -0.120486
v 0.205228 -0.562834 -0.120486
v -0.003899 -0.385564 -0.120486
v -0.120210 0.089038 -0.020486
v -0.213280 0.010146 0.025936
v -0.213280 0.010146 -0.020486
v 0.047752 0.112757 0.025936
v 0.047752 0.112757 -0.020486
v -0.055549 0.112757 0.025936
v -0.055549 0.112757 -0.020486
v 0.205483 0.010146 0.025936
v 0.205483 0.010146 -0.020486
v 0.112413 0.089038 0.025936
v 0.112413 0.089038 -0.020486
v 0.296316 -0.167027 0.025936
v 0.231909 -0.024868 0.025936
v 0.231909 -0.024868 -0.020486
v 0.296316 -0.167027 -0.020486
v 0.327384 -0.372705 0.025936
v 0.304398 -0.195436 0.025936
v 0.327384 -0.372705 -0.020486
v 0.304398 -0.195436 -0.020486
v 0.327384 -0.398424 0.025936
v 0.304398 -0.575693 0.025936
v 0.327384 -0.398424 -0.020486
v 0.304398 -0.575693 -0.020486
v 0.231909 -0.746261 0.025936
v 0.231909 -0.746261 -0.020486
v 0.296316 -0.604102 0.025936
v 0.296316 -0.604102 -0.020486
v 0.112413 -0.860167 0.025936
v 0.205483 -0.781275 0.025936
v 0.205483 -0.781275 -0.020486
v 0.112413 -0.860167 -0.020486
v -0.055549 -0.883886 0.025936
v -0.055549 -0.883886 -0.020486
v 0.047751 -0.883886 0.025936
v 0.047751 -0.883886 -0.020486
v -0.213281 -0.781275 0.025936
v -0.213281 -0.781275 -0.020486
v -0.120211 -0.860167 0.025936
v -0.120211 -0.860167 -0.020486
v -0.304113 -0.604102 0.025936
v -0.304113 -0.604102 -0.020486
v -0.239707 -0.746261 0.025936
v -0.239707 -0.746261 -0.020486
v -0.335182 -0.398423 0.025936
v -0.312196 -0.575693 0.025936
v -0.312196 -0.575693 -0.020486
v -0.335182 -0.398423 -0.020486
v -0.312195 -0.195435 0.025936
v -0.312195 -0.195435 -0.020486
v -0.335182 -0.372705 0.025936
v -0.335182 -0.372705 -0.020486
v -0.239706 -0.024867 0.025936
v -0.239706 -0.024867 -0.020486
v -0.304113 -0.167027 0.025936
v -0.304113 -0.167027 -0.020486
vn 0.0000 0.0000 1.0000
vn 0.0000 0.0000 -1.0000
vn -0.4724 0.8020 -0.3655
vn -0.3366 0.2541 -0.9067
vn -0.6733 0.6388 -0.3722
vn 0.1582 0.9172 -0.3655
vn -0.1513 0.4125 -0.8983
vn -0.1582 0.9172 -0.3655
vn -0.6733 0.6388 0.3722
vn -0.4724 0.8020 0.3655
vn -0.1582 0.9172 0.3655
vn 0.1582 0.9172 0.3655
vn 0.6733 0.6388 -0.3722
vn 0.4724 0.8020 0.3655
vn 0.6733 0.6388 0.3722
vn 0.4724 0.8020 -0.3655
vn 0.8697 0.3197 -0.3759
vn 0.7989 0.4723 0.3722
vn 0.8697 0.3197 0.3759
vn 0.7989 0.4723 -0.3722
vn 0.9243 0.0603 -0.3768
vn 0.9078 0.1860 0.3759
vn 0.9243 0.0603 0.3768
vn 0.9078 0.1860 -0.3759
vn 0.9078 -0.1860 -0.3759
vn 0.9243 -0.0603 0.3768
vn 0.9078 -0.1860 0.3759
vn 0.9243 -0.0603 -0.3768
vn 0.7989 -0.4723 -0.3722
vn 0.8697 -0.3197 0.3759
vn 0.7989 -0.4723 0.3722
vn 0.8697 -0.3197 -0.3759
vn 0.4724 -0.8020 -0.3655
vn 0.6733 -0.6388 0.3722
vn 0.4724 -0.8020 0.3655
vn 0.6733 -0.6388 -0.3722
vn -0.1582 -0.9172 -0.3655
vn 0.1582 -0.9172 0.3655
vn -0.1582 -0.9172 0.3655
vn 0.1582 -0.9172 -0.3655
vn -0.6733 -0.6388 -0.3722
vn -0.4724 -0.8020 0.3655
vn -0.6733 -0.6388 0.3722
vn -0.4724 -0.8020 -0.3655
vn -0.8697 -0.3197 -0.3759
vn -0.7989 -0.4723 0.3722
vn -0.8697 -0.3197 0.3759
vn -0.7989 -0.4723 -0.3722
vn -0.9243 -0.0603 -0.3768
vn -0.9078 -0.1860 0.3759
vn -0.9243 -0.0603 0.3768
vn -0.9078 -0.1860 -0.3759
vn -0.9078 0.1860 -0.3759
vn -0.9243 0.0603 0.3768
vn -0.9078 0.1860 0.3759
vn -0.9243 0.0603 -0.3768
vn -0.7989 0.4723 -0.3722
vn -0.8697 0.3197 0.3759
vn -0.7989 0.4723 0.3722
vn -0.8697 0.3197 -0.3759
vn -0.1513 0.4125 0.8983
vn 0.1513 0.4125 0.8983
vn 0.1513 0.4125 -0.8983
vn 0.3366 0.2541 0.9067
vn 0.3366 0.2541 -0.9067
vn 0.3946 0.1123 -0.9119
vn 0.3946 0.1123 0.9119
vn 0.4071 0.0000 -0.9134
vn 0.4071 0.0000 0.9134
vn 0.3946 -0.1123 -0.9119
vn 0.3946 -0.1123 0.9119
vn 0.3366 -0.2541 -0.9067
vn 0.3366 -0.2541 0.9067
vn -0.3366 0.2541 0.9067
vn -0.3946 0.1123 -0.9119
vn -0.3946 0.1123 0.9119
vn -0.4071 0.0000 -0.9134
vn -0.4071 0.0000 0.9134
vn -0.3946 -0.1123 0.9119
vn -0.3946 -0.1123 -0.9119
vn -0.3366 -0.2541 0.9067
vn -0.3366 -0.2541 -0.9067
vn -0.1513 -0.4125 -0.8983
vn 0.1513 -0.4125 -0.8983
vn -0.1513 -0.4125 0.8983
vn 0.1513 -0.4125 0.8983
usemtl None
s off
f 13//1 14//1 17//1
f 6//1 7//1 17//1
f 11//1 12//1 17//1
f 16//1 3//1 17//1
f 4//1 5//1 17//1
f 9//1 10//1 17//1
f 14//1 15//1 17//1
f 7//1 8//1 17//1
f 12//1 13//1 17//1
f 5//1 6//1 17//1
f 10//1 11//1 17//1
f 3//1 4//1 17//1
f 15//1 16//1 17//1
f 8//1 9//1 17//1
f 23//2 22//2 31//2
f 2//2 27//2 31//2
f 24//2 23//2 31//2
f 18//2 2//2 31//2
f 29//2 24//2 31//2
f 19//2 18//2 31//2
f 25//2 29//2 31//2
f 20//2 19//2 31//2
f 30//2 25//2 31//2
f 21//2 20//2 31//2
f 26//2 30//2 31//2
f 28//2 21//2 31//2
f 22//2 28//2 31//2
f 27//2 26//2 31//2
s 1
f 32//3 20//4 34//5
f 36//6 19//7 38//8
f 32//3 33//9 1//10
f 32//3 34//5 33//9
f 36//6 37//11 35//12
f 36//6 38//8 37//11
f 40//13 41//14 39//15
f 40//13 42//16 41//14
f 46//17 44//18 43//19
f 46//17 45//20 44//18
f 49//21 48//22 47//23
f 49//21 50//24 48//22
f 54//25 51//26 52//27
f 54//25 53//28 51//26
f 38//8 19//7 32//3
f 56//29 57//30 55//31
f 56//29 58//32 57//30
f 62//33 60//34 59//35
f 62//33 61//36 60//34
f 64//37 65//38 63//39
f 64//37 66//40 65//38
f 68//41 69//42 67//43
f 68//41 70//44 69//42
f 72//45 73//46 71//47
f 72//45 74//48 73//46
f 78//49 76//50 75//51
f 78//49 77//52 76//50
f 80//53 81//54 79//55
f 80//53 82//56 81//54
f 84//57 85//58 83//59
f 84//57 86//60 85//58
f 37//11 32//3 1//10
f 7//61 37//11 1//10
f 6//62 37//11 7//61
f 41//14 36//6 35//12
f 36//6 42//16 18//63
f 35//12 6//62 41//14
f 5//64 41//14 6//62
f 2//65 42//16 40//13
f 44//18 40//13 39//15
f 40//13 45//20 2//65
f 39//15 5//64 44//18
f 27//66 45//20 46//17
f 4//67 44//18 5//64
f 48//22 46//17 43//19
f 46//17 50//24 27//66
f 26//68 50//24 49//21
f 3//69 48//22 4//67
f 43//19 4//67 48//22
f 47//23 53//28 49//21
f 49//21 53//28 26//68
f 26//68 54//25 30//70
f 3//69 52//27 51//26
f 47//23 3//69 51//26
f 57//30 54//25 52//27
f 52//27 16//71 57//30
f 16//71 55//31 57//30
f 30//70 56//29 25//72
f 54//25 58//32 30//70
f 61//36 25//72 56//29
f 60//34 56//29 55//31
f 55//31 15//73 60//34
f 8//74 1//10 33//9
f 8//74 33//9 83//59
f 34//5 83//59 33//9
f 34//5 20//4 84//57
f 21//75 84//57 20//4
f 9//76 83//59 85//58
f 9//76 85//58 79//55
f 85//58 80//53 79//55
f 86//60 21//75 80//53
f 28//77 80//53 21//75
f 10//78 79//55 81//54
f 28//77 78//49 82//56
f 81//54 78//49 75//51
f 81//54 75//51 10//78
f 10//78 76//50 11//79
f 28//77 77//52 78//49
f 22//80 72//45 77//52
f 76//50 72//45 71//47
f 76//50 71//47 11//79
f 11//79 73//46 12//81
f 22//80 74//48 72//45
f 67//43 12//81 73//46
f 73//46 68//41 67//43
f 74//48 23//82 68//41
f 23//82 70//44 68//41
f 24//83 64//37 70//44
f 29//84 64//37 24//83
f 66//40 29//84 62//33
f 25//72 62//33 29//84
f 65//38 62//33 59//35
f 69//42 64//37 63//39
f 12//81 69//42 13//85
f 69//42 63//39 13//85
f 13//85 65//38 14//86
f 65//38 59//35 14//86
f 15//73 59//35 60//34
f 32//3 19//7 20//4
f 36//6 18//63 19//7
f 37//11 38//8 32//3
f 6//62 35//12 37//11
f 41//14 42//16 36//6
f 5//64 39//15 41//14
f 2//65 18//63 42//16
f 44//18 45//20 40//13
f 27//66 2//65 45//20
f 4//67 43//19 44//18
f 48//22 50//24 46//17
f 26//68 27//66 50//24
f 3//69 47//23 48//22
f 47//23 51//26 53//28
f 26//68 53//28 54//25
f 3//69 16//71 52//27
f 57//30 58//32 54//25
f 16//71 15//73 55//31
f 30//70 58//32 56//29
f 60//34 61//36 56//29
f 8//74 7//61 1//10
f 34//5 84//57 83//59
f 21//75 86//60 84//57
f 9//76 8//74 83//59
f 85//58 86//60 80//53
f 28//77 82//56 80//53
f 10//78 9//76 79//55
f 81//54 82//56 78//49
f 10//78 75//51 76//50
f 28//77 22//80 77//52
f 76//50 77//52 72//45
f 11//79 71//47 73//46
f 22//80 23//82 74//48
f 73//46 74//48 68//41
f 23//82 24//83 70//44
f 29//84 66//40 64//37
f 25//72 61//36 62//33
f 65//38 66//40 62//33
f 69//42 70//44 64//37
f 12//81 67//43 69//42
f 13//85 63//39 65//38
f 15//73 14//86 59//35
o Cylinder.001_Cylinder.000
v 0.228214 -0.385565 0.025936
v 0.205228 -0.208295 0.025936
v 0.140822 -0.066136 0.025936
v 0.140822 -0.066136 -0.020486
v 0.047751 0.012757 0.025936
v 0.047751 0.012757 -0.020486
v -0.055549 0.012757 0.025936
v -0.055549 0.012757 -0.020486
v -0.148619 -0.066136 0.025936
v -0.148619 -0.066136 -0.020486
v -0.213026 -0.208295 0.025936
v -0.213026 -0.208295 -0.020486
v -0.236012 -0.385564 0.025936
v -0.213026 -0.562834 0.025936
v -0.213026 -0.562834 -0.020486
v -0.148619 -0.704993 0.025936
v -0.148619 -0.704993 -0.020486
v -0.055549 -0.783886 0.025936
v -0.055549 -0.783886 -0.020486
v 0.047751 -0.783886 0.025936
v 0.140821 -0.704993 0.025936
v 0.140821 -0.704993 -0.020486
v 0.205228 -0.562834 0.025936
v 0.228214 -0.385565 -0.020486
v 0.205228 -0.208295 -0.020486
v -0.236012 -0.385564 -0.020486
v 0.047751 -0.783886 -0.020486
v 0.205228 -0.562834 -0.020486
v -0.003899 -0.385564 -0.020486
v -0.003899 -0.385564 0.025936
vn 0.9917 0.1286 0.0000
vn 0.9109 0.4127 0.0000
vn 0.6466 0.7628 0.0000
vn 0.0000 1.0000 0.0000
vn -0.6466 0.7628 0.0000
vn -0.9109 0.4127 0.0000
vn -0.9917 0.1286 0.0000
vn -0.9917 -0.1286 0.0000
vn -0.9109 -0.4127 0.0000
vn -0.6466 -0.7628 0.0000
vn 0.0000 -1.0000 0.0000
vn 0.6466 -0.7628 0.0000
vn 0.9109 -0.4127 0.0000
vn 0.9917 -0.1286 0.0000
vn 0.0000 -0.0000 1.0000
vn 0.0000 -0.0000 -1.0000
usemtl None
s off
f 110//87 88//87 87//87
f 111//88 89//88 88//88
f 90//89 91//89 89//89
f 92//90 93//90 91//90
f 94//91 95//91 93//91
f 96//92 97//92 95//92
f 98//93 99//93 97//93
f 112//94 100//94 99//94
f 101//95 102//95 100//95
f 103//96 104//96 102//96
f 105//97 106//97 104//97
f 113//98 107//98 106//98
f 108//99 109//99 107//99
f 114//100 87//100 109//100
f 110//87 111//87 88//87
f 111//88 90//88 89//88
f 90//89 92//89 91//89
f 92//90 94//90 93//90
f 94//91 96//91 95//91
f 96//92 98//92 97//92
f 98//93 112//93 99//93
f 112//94 101//94 100//94
f 101//95 103//95 102//95
f 103//96 105//96 104//96
f 105//97 113//97 106//97
f 113//98 108//98 107//98
f 108//99 114//99 109//99
f 114//100 110//100 87//100
f 104//101 106//101 116//101
f 103//102 101//102 115//102
f 90//102 111//102 115//102
f 105//102 103//102 115//102
f 92//102 90//102 115//102
f 113//102 105//102 115//102
f 94//102 92//102 115//102
f 108//102 113//102 115//102
f 96//102 94//102 115//102
f 114//102 108//102 115//102
f 98//102 96//102 115//102
f 110//102 114//102 115//102
f 112//102 98//102 115//102
f 101//102 112//102 115//102
f 111//102 110//102 115//102
f 91//101 93//101 116//101
f 100//101 102//101 116//101
f 109//101 87//101 116//101
f 88//101 89//101 116//101
f 97//101 99//101 116//101
f 106//101 107//101 116//101
f 93//101 95//101 116//101
f 102//101 104//101 116//101
f 89//101 91//101 116//101
f 99//101 100//101 116//101
f 87//101 88//101 116//101
f 107//101 109//101 116//101
f 95//101 97//101 116//101
o Cylinder_Cylinder.002
v 0.228214 -0.385565 0.025936
v 0.205228 -0.208295 0.025936
v 0.140822 -0.066136 0.025936
v 0.140822 -0.066136 -0.020486
v 0.047751 0.012757 0.025936
v 0.047751 0.012757 -0.020486
v -0.055549 0.012757 0.025936
v -0.055549 0.012757 -0.020486
v -0.148619 -0.066136 0.025936
v -0.148619 -0.066136 -0.020486
v -0.213026 -0.208295 0.025936
v -0.213026 -0.208295 -0.020486
v -0.236012 -0.385564 0.025936
v -0.213026 -0.562834 0.025936
v -0.213026 -0.562834 -0.020486
v -0.148619 -0.704993 0.025936
v -0.148619 -0.704993 -0.020486
v -0.055549 -0.783886 0.025936
v -0.055549 -0.783886 -0.020486
v 0.047751 -0.783886 0.025936
v 0.140821 -0.704993 0.025936
v 0.140821 -0.704993 -0.020486
v 0.205228 -0.562834 0.025936
v 0.228214 -0.385565 -0.020486
v 0.205228 -0.208295 -0.020486
v -0.236012 -0.385564 -0.020486
v 0.047751 -0.783886 -0.020486
v 0.205228 -0.562834 -0.020486
v -0.003899 -0.385564 -0.020486
v -0.003899 -0.385564 0.025936
vn 0.9917 0.1286 0.0000
vn 0.9109 0.4127 0.0000
vn 0.6466 0.7628 0.0000
vn 0.0000 1.0000 0.0000
vn -0.6466 0.7628 0.0000
vn -0.9109 0.4127 0.0000
vn -0.9917 0.1286 0.0000
vn -0.9917 -0.1286 0.0000
vn -0.9109 -0.4127 0.0000
vn -0.6466 -0.7628 0.0000
vn 0.0000 -1.0000 0.0000
vn 0.6466 -0.7628 0.0000
vn 0.9109 -0.4127 0.0000
vn 0.9917 -0.1286 0.0000
vn 0.0000 -0.0000 1.0000
vn 0.0000 -0.0000 -1.0000
usemtl None
s off
f 140//103 118//103 117//103
f 141//104 119//104 118//104
f 120//105 121//105 119//105
f 122//106 123//106 121//106
f 124//107 125//107 123//107
f 126//108 127//108 125//108
f 128//109 129//109 127//109
f 142//110 130//110 129//110
f 131//111 132//111 130//111
f 133//112 134//112 132//112
f 135//113 136//113 134//113
f 143//114 137//114 136//114
f 138//115 139//115 137//115
f 144//116 117//116 139//116
f 140//103 141//103 118//103
f 141//104 120//104 119//104
f 120//105 122//105 121//105
f 122//106 124//106 123//106
f 124//107 126//107 125//107
f 126//108 128//108 127//108
f 128//109 142//109 129//109
f 142//110 131//110 130//110
f 131//111 133//111 132//111
f 133//112 135//112 134//112
f 135//113 143//113 136//113
f 143//114 138//114 137//114
f 138//115 144//115 139//115
f 144//116 140//116 117//116
f 134//117 136//117 146//117
f 133//118 131//118 145//118
f 120//118 141//118 145//118
f 135//118 133//118 145//118
f 122//118 120//118 145//118
f 143//118 135//118 145//118
f 124//118 122//118 145//118
f 138//118 143//118 145//118
f 126//118 124//118 145//118
f 144//118 138//118 145//118
f 128//118 126//118 145//118
f 140//118 144//118 145//118
f 142//118 128//118 145//118
f 131//118 142//118 145//118
f 141//118 140//118 145//118
f 121//117 123//117 146//117
f 130//117 132//117 146//117
f 139//117 117//117 146//117
f 118//117 119//117 146//117
f 127//117 129//117 146//117
f 136//117 137//117 146//117
f 123//117 125//117 146//117
f 132//117 134//117 146//117
f 119//117 121//117 146//117
f 129//117 130//117 146//117
f 117//117 118//117 146//117
f 137//117 139//117 146//117
f 125//117 127//117 146//117
