# Blender v2.79 (sub 0) OBJ File: 'ring.blend'
# www.blender.org
mtllib ring.mtl
o Circle.001
v -0.042687 -1.767520 -0.301483
v 1.208213 -1.249381 -0.301483
v 1.726353 0.001519 -0.301483
v 1.208213 1.252419 -0.301483
v -0.042687 1.770559 -0.301483
v -1.293587 1.252419 -0.301483
v -1.811727 0.001519 -0.301483
v -1.293587 -1.249381 -0.301483
vn 0.0000 0.0000 -1.0000
usemtl None
s off
f 1//1 5//1 3//1
f 1//1 3//1 2//1
f 3//1 5//1 4//1
f 5//1 1//1 6//1
f 6//1 1//1 7//1
f 7//1 1//1 8//1
o Circle
v -0.042687 -1.767520 0.382194
v 1.208213 -1.249381 0.382194
v 1.726353 0.001519 0.382194
v 1.208213 1.252419 0.382194
v -0.042687 1.770559 0.382194
v -1.293587 1.252419 0.382194
v -1.811727 0.001519 0.382194
v -1.293587 -1.249381 0.382194
vn 0.0000 0.0000 1.0000
usemtl None
s off
f 9//2 11//2 13//2
f 9//2 10//2 11//2
f 11//2 12//2 13//2
f 13//2 14//2 9//2
f 14//2 15//2 9//2
f 15//2 16//2 9//2
o Torus
v -2.667687 0.001519 0.040056
v -2.405187 0.001519 0.494720
v -1.880187 0.001519 0.494720
v -1.617687 0.001519 0.040056
v -1.880187 0.001519 -0.414607
v -2.405187 0.001519 -0.414607
v -1.898842 -1.854636 0.040056
v -1.713227 -1.669021 0.494720
v -1.341996 -1.297790 0.494720
v -1.156381 -1.112174 0.040056
v -1.341996 -1.297790 -0.414607
v -1.713227 -1.669021 -0.414607
v -0.042688 -2.623481 0.040056
v -0.042688 -2.360981 0.494720
v -0.042688 -1.835981 0.494720
v -0.042688 -1.573481 0.040056
v -0.042688 -1.835981 -0.414607
v -0.042688 -2.360981 -0.414607
v 1.813468 -1.854636 0.040056
v 1.627853 -1.669020 0.494720
v 1.256621 -1.297789 0.494720
v 1.071006 -1.112174 0.040056
v 1.256621 -1.297789 -0.414607
v 1.627853 -1.669020 -0.414607
v 2.582313 0.001519 0.040056
v 2.319813 0.001519 0.494720
v 1.794813 0.001519 0.494720
v 1.532313 0.001519 0.040056
v 1.794813 0.001519 -0.414607
v 2.319813 0.001519 -0.414607
v 1.813468 1.857674 0.040056
v 1.627853 1.672058 0.494720
v 1.256621 1.300827 0.494720
v 1.071006 1.115212 0.040056
v 1.256621 1.300827 -0.414607
v 1.627853 1.672058 -0.414607
v -0.042688 2.626519 0.040056
v -0.042688 2.364019 0.494720
v -0.042688 1.839019 0.494720
v -0.042688 1.576519 0.040056
v -0.042688 1.839019 -0.414607
v -0.042688 2.364019 -0.414607
v -1.898842 1.857676 0.040056
v -1.713226 1.672060 0.494720
v -1.341995 1.300828 0.494720
v -1.156380 1.115213 0.040056
v -1.341995 1.300828 -0.414607
v -1.713226 1.672060 -0.414607
vn -0.8152 -0.3377 0.4706
vn -0.0000 -0.0000 1.0000
vn 0.8152 0.3377 0.4706
vn 0.8152 0.3377 -0.4706
vn 0.0000 0.0000 -1.0000
vn -0.8152 -0.3377 -0.4706
vn -0.3377 -0.8152 0.4706
vn 0.3377 0.8152 0.4706
vn 0.3377 0.8152 -0.4706
vn -0.3377 -0.8152 -0.4706
vn 0.3377 -0.8152 0.4706
vn -0.3377 0.8152 0.4706
vn -0.3377 0.8152 -0.4706
vn 0.3377 -0.8152 -0.4706
vn 0.8152 -0.3377 0.4706
vn -0.8152 0.3377 0.4706
vn -0.8152 0.3377 -0.4706
vn 0.8152 -0.3377 -0.4706
usemtl None
s off
f 17//3 24//3 18//3
f 24//4 19//4 18//4
f 19//5 26//5 20//5
f 26//6 21//6 20//6
f 27//7 22//7 21//7
f 28//8 17//8 22//8
f 29//9 24//9 23//9
f 30//4 25//4 24//4
f 25//10 32//10 26//10
f 32//11 27//11 26//11
f 33//7 28//7 27//7
f 34//12 23//12 28//12
f 29//13 36//13 30//13
f 36//4 31//4 30//4
f 37//14 32//14 31//14
f 32//15 39//15 33//15
f 39//7 34//7 33//7
f 34//16 35//16 29//16
f 35//17 42//17 36//17
f 42//4 37//4 36//4
f 43//18 38//18 37//18
f 44//19 39//19 38//19
f 45//7 40//7 39//7
f 46//20 35//20 40//20
f 47//5 42//5 41//5
f 42//4 49//4 43//4
f 43//3 50//3 44//3
f 44//8 51//8 45//8
f 51//7 46//7 45//7
f 46//6 47//6 41//6
f 53//10 48//10 47//10
f 54//4 49//4 48//4
f 55//9 50//9 49//9
f 50//12 57//12 51//12
f 57//7 52//7 51//7
f 58//11 47//11 52//11
f 59//14 54//14 53//14
f 60//4 55//4 54//4
f 61//13 56//13 55//13
f 62//16 57//16 56//16
f 57//7 64//7 58//7
f 58//15 59//15 53//15
f 17//18 60//18 59//18
f 18//4 61//4 60//4
f 19//17 62//17 61//17
f 20//20 63//20 62//20
f 21//7 64//7 63//7
f 22//19 59//19 64//19
f 17//3 23//3 24//3
f 24//4 25//4 19//4
f 19//5 25//5 26//5
f 26//6 27//6 21//6
f 27//7 28//7 22//7
f 28//8 23//8 17//8
f 29//9 30//9 24//9
f 30//4 31//4 25//4
f 25//10 31//10 32//10
f 32//11 33//11 27//11
f 33//7 34//7 28//7
f 34//12 29//12 23//12
f 29//13 35//13 36//13
f 36//4 37//4 31//4
f 37//14 38//14 32//14
f 32//15 38//15 39//15
f 39//7 40//7 34//7
f 34//16 40//16 35//16
f 35//17 41//17 42//17
f 42//4 43//4 37//4
f 43//18 44//18 38//18
f 44//19 45//19 39//19
f 45//7 46//7 40//7
f 46//20 41//20 35//20
f 47//5 48//5 42//5
f 42//4 48//4 49//4
f 43//3 49//3 50//3
f 44//8 50//8 51//8
f 51//7 52//7 46//7
f 46//6 52//6 47//6
f 53//10 54//10 48//10
f 54//4 55//4 49//4
f 55//9 56//9 50//9
f 50//12 56//12 57//12
f 57//7 58//7 52//7
f 58//11 53//11 47//11
f 59//14 60//14 54//14
f 60//4 61//4 55//4
f 61//13 62//13 56//13
f 62//16 63//16 57//16
f 57//7 63//7 64//7
f 58//15 64//15 59//15
f 17//18 18//18 60//18
f 18//4 19//4 61//4
f 19//17 20//17 62//17
f 20//20 21//20 63//20
f 21//7 22//7 64//7
f 22//19 17//19 59//19
