# Blender v2.79 (sub 0) OBJ File: ''
# www.blender.org
mtllib camera.mtl
o Plane
v -0.035355 0.077308 -0.031676
v 0.000000 0.112664 -0.031676
v 0.035355 0.077308 -0.031676
v -0.035355 0.077308 -0.031676
v 0.000000 0.112664 -0.031676
v 0.035355 0.077308 -0.031676
vn 0.0000 0.0000 -1.0000
vn 0.0000 0.0000 1.0000
usemtl None
s off
f 2//1 3//1 1//1
f 5//2 4//2 6//2
o Cone_Cone.001
v -0.070711 0.070711 -0.040735
v -0.070711 -0.070711 -0.040735
v 0.070711 -0.070711 -0.040735
v 0.070711 0.070711 -0.040735
v 0.000000 0.000000 0.024922
v -0.070711 0.070711 -0.040673
v -0.070711 -0.070711 -0.040673
v 0.070711 -0.070711 -0.040673
v 0.070711 0.070711 -0.040673
v 0.000000 0.000000 0.024984
vn -0.6804 0.0000 0.7328
vn 0.0000 -0.6804 0.7328
vn 0.6804 0.0000 0.7328
vn 0.0000 0.6804 0.7328
vn 0.6804 -0.0000 -0.7328
vn -0.0000 0.6804 -0.7328
vn -0.6804 -0.0000 -0.7328
vn -0.0000 -0.6804 -0.7328
usemtl None
s off
f 7//3 8//3 11//3
f 8//4 9//4 11//4
f 9//5 10//5 11//5
f 10//6 7//6 11//6
f 12//7 16//7 13//7
f 13//8 16//8 14//8
f 14//9 16//9 15//9
f 15//10 16//10 12//10
o Cube
v -0.050000 -0.050000 0.100000
v 0.050000 -0.050000 0.100000
v 0.050000 0.050000 0.100000
v -0.050000 0.050000 0.100000
v -0.050000 -0.050000 -0.000000
v 0.050000 -0.050000 -0.000000
v 0.050000 0.050000 -0.000000
v -0.050000 0.050000 -0.000000
vn 0.0000 0.0000 1.0000
vn -0.0000 -0.0000 -1.0000
vn 0.0000 -1.0000 0.0000
vn 1.0000 0.0000 0.0000
vn -0.0000 1.0000 0.0000
vn -1.0000 -0.0000 -0.0000
usemtl Material
s off
f 18//11 20//11 17//11
f 24//12 22//12 21//12
f 21//13 18//13 17//13
f 22//14 19//14 18//14
f 19//15 24//15 20//15
f 17//16 24//16 21//16
f 18//11 19//11 20//11
f 24//12 23//12 22//12
f 21//13 22//13 18//13
f 22//14 23//14 19//14
f 19//15 23//15 24//15
f 17//16 20//16 24//16
