# Blender v2.79 (sub 0) OBJ File: ''
# www.blender.org
mtllib camera.mtl
o Cube.001
v 0.050000 -0.050000 0.137447
v -0.050000 0.050000 0.137447
v -0.050000 -0.050000 0.137447
v -0.050000 0.050000 0.037447
v 0.050000 -0.050000 0.037447
v -0.050000 -0.050000 0.037447
v 0.050000 0.050000 0.137447
v 0.050000 0.050000 0.037447
vn 0.0000 0.0000 1.0000
vn 0.0000 0.0000 -1.0000
vn 0.0000 -1.0000 0.0000
vn 1.0000 -0.0000 0.0000
vn 0.0000 1.0000 0.0000
vn -1.0000 -0.0000 0.0000
usemtl Material.001
s 1
f 1//1 2//1 3//1
f 4//2 5//2 6//2
f 6//3 1//3 3//3
f 5//4 7//4 1//4
f 7//5 4//5 2//5
f 3//6 4//6 6//6
f 1//1 7//1 2//1
f 4//2 8//2 5//2
f 6//3 5//3 1//3
f 5//4 8//4 7//4
f 7//5 8//5 4//5
f 3//6 2//6 4//6
o Cone_Cone.001
v -0.070711 0.070711 -0.003288
v -0.070711 -0.070711 -0.003288
v 0.000000 -0.000000 0.062369
v 0.070711 -0.070711 -0.003288
v 0.070711 0.070711 -0.003288
v -0.070711 0.070711 -0.003226
v 0.000000 -0.000000 0.062431
v -0.070711 -0.070711 -0.003226
v 0.070711 -0.070711 -0.003226
v 0.070711 0.070711 -0.003226
vn -0.6804 0.0000 0.7328
vn 0.0000 -0.6804 0.7328
vn 0.6804 0.0000 0.7328
vn 0.0000 0.6804 0.7328
vn 0.6804 0.0000 -0.7328
vn 0.0000 0.6804 -0.7328
vn -0.6804 0.0000 -0.7328
vn 0.0000 -0.6804 -0.7328
usemtl None
s 1
f 9//7 10//7 11//7
f 10//8 12//8 11//8
f 12//9 13//9 11//9
f 13//10 9//10 11//10
f 14//11 15//11 16//11
f 16//12 15//12 17//12
f 17//13 15//13 18//13
f 18//14 15//14 14//14
o Plane
v 0.000000 0.112664 0.005771
v 0.035355 0.077308 0.005771
v -0.035355 0.077308 0.005771
v 0.000000 0.112664 0.005771
v -0.035355 0.077308 0.005771
v 0.035355 0.077308 0.005771
vn 0.0000 0.0000 -1.0000
vn 0.0000 0.0000 1.0000
usemtl None
s 1
f 19//15 20//15 21//15
f 22//16 23//16 24//16
