# Blender v2.79 (sub 0) OBJ File: 'indexvisor.blend'
# www.blender.org
mtllib indexvisor.mtl
o Index_Hmd_Assembly.001
v -0.062876 -0.045308 -0.096365
v -0.062149 -0.045437 -0.096404
v 0.080065 0.035754 -0.082331
v 0.087346 0.028345 -0.078137
v 0.087039 -0.007880 -0.083782
v 0.090112 -0.000953 -0.079622
v 0.071742 -0.022605 -0.094591
v 0.079575 -0.015108 -0.090350
v 0.068246 -0.025190 -0.095670
v 0.063142 -0.024429 -0.097306
v 0.058533 -0.024948 -0.098430
v 0.054628 -0.027078 -0.099028
v 0.051637 -0.030690 -0.099060
v 0.045784 -0.045397 -0.096416
v 0.038208 -0.037284 -0.099360
v 0.032625 -0.034959 -0.100422
v -0.103536 -0.007625 -0.083582
v -0.105917 -0.003462 -0.080529
v -0.084710 -0.025191 -0.095642
v -0.078185 -0.024328 -0.097700
v -0.066457 -0.035416 -0.098510
v -0.067309 -0.032079 -0.098857
v -0.069215 -0.028802 -0.099115
v -0.072801 -0.025797 -0.098803
v -0.066547 -0.041235 -0.097045
v -0.031913 -0.034877 -0.101335
v 0.010720 -0.034875 -0.101491
v -0.008220 -0.034743 -0.101737
v 0.069173 0.036970 -0.087444
v 0.014594 0.039029 -0.096322
v -0.025848 0.039075 -0.096514
v 0.028103 0.038858 -0.095470
v 0.049888 0.038228 -0.092669
v 0.086165 0.032221 -0.078439
v 0.083790 0.034439 -0.080008
v 0.088992 0.016536 -0.078630
v 0.090095 0.004097 -0.078972
v 0.088881 -0.005072 -0.081416
v 0.050246 -0.035059 -0.098531
v 0.050042 -0.041805 -0.097230
v 0.050151 -0.041906 -0.096893
v 0.035617 -0.035724 -0.099950
v -0.069304 0.038063 -0.092011
v -0.093988 0.036066 -0.083620
v -0.101689 0.033240 -0.078890
v -0.106502 0.002345 -0.079090
v -0.105354 0.015967 -0.078649
v -0.103366 0.029908 -0.078082
v -0.094986 -0.015989 -0.090987
v -0.087195 -0.023366 -0.094856
v -0.066191 -0.042253 -0.097047
v -0.055341 -0.038149 -0.099062
v -0.052656 -0.036033 -0.099837
v -0.048863 -0.034955 -0.100431
v 0.050340 0.012546 -0.100106
v 0.036116 -0.021460 -0.102858
v 0.015784 -0.026375 -0.103434
v 0.059466 -0.010403 -0.099053
v 0.078755 0.011304 -0.088761
v -0.006888 0.033599 -0.099520
v -0.000187 0.020619 -0.103723
v 0.007690 0.006549 -0.105884
v 0.008548 -0.008760 -0.106124
v -0.008132 -0.024056 -0.104289
v 0.035611 -0.000823 -0.103900
v 0.068498 0.004989 -0.094845
v 0.055104 0.027666 -0.095644
v 0.072164 0.022949 -0.090557
v 0.027946 0.026960 -0.100519
v 0.024638 0.018607 -0.103149
v -0.083503 0.037107 -0.088100
v -0.047773 0.038794 -0.095163
v -0.098903 0.035034 -0.080656
v -0.096076 0.024238 -0.085858
v -0.095564 0.002289 -0.089336
v -0.078258 -0.015504 -0.098145
v -0.059933 -0.014832 -0.102326
v -0.057502 -0.026581 -0.101432
v -0.029846 -0.021018 -0.104607
v -0.030307 0.002405 -0.105886
v -0.031932 0.023453 -0.102622
v -0.072673 0.030734 -0.094099
v -0.074910 0.003401 -0.098710
v -0.056436 0.001038 -0.103218
v -0.066416 0.018199 -0.099076
v -0.084471 0.025426 -0.091785
v -0.084988 0.004002 -0.094860
v -0.054603 0.023205 -0.100422
vn 0.9390 -0.0924 -0.3314
vn -0.5600 -0.1941 -0.8055
vn -0.0014 -0.9216 -0.3880
vn 0.0463 -0.2487 -0.9675
vn 0.1417 -0.1635 -0.9763
vn 0.1143 -0.1915 -0.9748
vn 0.1639 -0.1269 -0.9783
vn 0.2425 -0.0570 -0.9685
vn 0.3149 -0.0301 -0.9487
vn 0.2996 -0.0402 -0.9532
vn 0.6222 0.0662 -0.7800
vn 0.7618 0.0852 -0.6422
vn 0.7504 0.0623 -0.6580
vn 0.6292 0.1321 -0.7659
vn 0.0047 0.4937 -0.8696
vn 0.0366 0.1717 -0.9845
vn 0.0216 -0.1423 -0.9896
vn 0.0123 -0.2323 -0.9726
vn 0.0111 -0.2291 -0.9733
vn 0.0615 -0.2892 -0.9553
vn 0.0981 -0.2024 -0.9744
vn 0.1001 -0.2021 -0.9742
vn 0.1862 -0.0555 -0.9810
vn 0.1796 -0.0536 -0.9823
vn 0.1815 -0.0451 -0.9824
vn 0.3721 0.0352 -0.9275
vn 0.4429 0.0438 -0.8955
vn 0.4779 0.0675 -0.8758
vn 0.3434 0.2728 -0.8987
vn 0.4333 0.2825 -0.8558
vn 0.5640 0.1710 -0.8078
vn 0.6131 0.1180 -0.7811
vn 0.6612 0.1353 -0.7379
vn 0.5522 0.1872 -0.8124
vn 0.3249 0.1720 -0.9300
vn 0.3335 0.1540 -0.9301
vn 0.4513 0.1190 -0.8844
vn 0.0638 0.3069 -0.9496
vn 0.0346 0.3240 -0.9454
vn 0.0479 0.3897 -0.9197
vn 0.0451 0.2837 -0.9578
vn 0.1286 0.3860 -0.9135
vn 0.0750 -0.1959 -0.9778
vn 0.0587 -0.1271 -0.9901
vn 0.0957 -0.0478 -0.9943
vn 0.0761 0.0199 -0.9969
vn 0.1445 0.1195 -0.9823
vn 0.1678 0.2300 -0.9586
vn 0.1577 0.3391 -0.9274
vn 0.0947 0.0917 -0.9913
vn 0.1658 0.2359 -0.9575
vn 0.2649 0.3804 -0.8861
vn 0.7283 0.0852 -0.6799
vn 0.6734 0.1007 -0.7324
vn 0.3075 0.0788 -0.9483
vn 0.2146 0.0406 -0.9759
vn 0.1019 -0.2022 -0.9740
vn -0.3996 0.3058 -0.8642
vn -0.6617 0.1553 -0.7336
vn -0.7557 0.0847 -0.6494
vn -0.6251 0.0506 -0.7789
vn -0.2943 -0.0506 -0.9544
vn -0.3217 -0.0302 -0.9464
vn -0.2138 -0.0510 -0.9756
vn -0.2202 -0.0545 -0.9739
vn -0.1737 -0.1058 -0.9791
vn -0.1602 -0.1698 -0.9724
vn -0.1741 -0.1456 -0.9739
vn -0.1004 -0.2118 -0.9721
vn -0.0706 -0.2830 -0.9565
vn -0.1089 -0.3279 -0.9384
vn -0.1032 -0.2238 -0.9692
vn -0.0922 -0.2115 -0.9730
vn -0.0509 -0.2223 -0.9737
vn -0.0735 -0.1928 -0.9785
vn -0.0153 -0.2276 -0.9736
vn -0.0182 -0.2321 -0.9725
vn -0.0019 -0.1171 -0.9931
vn -0.0016 0.0156 -0.9999
vn -0.0207 0.1516 -0.9882
vn -0.0156 0.1433 -0.9896
vn -0.0058 0.3053 -0.9522
vn -0.2695 0.3764 -0.8864
vn -0.1030 -0.2167 -0.9708
vn -0.1738 -0.1104 -0.9786
vn -0.3892 0.0707 -0.9184
vn -0.4674 0.0376 -0.8832
vn -0.3680 0.0296 -0.9293
vn -0.3549 0.0349 -0.9343
vn -0.2228 0.0103 -0.9748
vn -0.2373 -0.0023 -0.9714
vn -0.0947 -0.0949 -0.9910
vn -0.3151 0.3092 -0.8973
vn -0.4608 0.2429 -0.8536
vn -0.5379 0.2475 -0.8058
vn -0.6150 0.2058 -0.7612
vn -0.6763 0.1259 -0.7258
vn -0.2850 0.2275 -0.9312
vn -0.2188 0.2638 -0.9394
vn -0.1788 0.3448 -0.9215
vn -0.3149 0.1576 -0.9360
vn -0.3460 0.1414 -0.9275
vn -0.4617 0.1369 -0.8764
vn -0.4753 0.1269 -0.8706
vn -0.6653 0.1017 -0.7396
vn -0.7244 0.0872 -0.6839
vn -0.6637 0.1038 -0.7408
vn -0.2232 0.1041 -0.9692
vn -0.0941 0.3550 -0.9301
vn -0.0624 0.3055 -0.9501
vn -0.0473 0.3969 -0.9167
vn -0.1080 0.1442 -0.9836
vn -0.0972 0.1324 -0.9864
vn -0.1468 0.3733 -0.9160
vn -0.1693 0.1371 -0.9760
vn -0.0998 -0.0339 -0.9944
vn -0.0869 -0.0560 -0.9946
vn -0.0219 -0.0550 -0.9982
usemtl None
s off
f 39//1 41//1 40//1
f 25//2 21//2 51//2
f 27//3 26//3 28//3
f 16//4 27//4 57//4
f 13//5 39//5 56//5
f 56//6 39//6 40//6
f 12//7 13//7 56//7
f 58//8 10//8 11//8
f 7//9 9//9 58//9
f 58//10 9//10 10//10
f 5//11 8//11 59//11
f 36//12 37//12 6//12
f 5//13 6//13 38//13
f 35//14 34//14 4//14
f 31//15 30//15 60//15
f 61//16 70//16 62//16
f 64//17 63//17 57//17
f 64//18 57//18 28//18
f 57//19 27//19 28//19
f 14//20 15//20 40//20
f 56//21 40//21 15//21
f 56//22 15//22 42//22
f 12//23 56//23 58//23
f 12//24 58//24 11//24
f 56//25 65//25 58//25
f 7//26 58//26 66//26
f 7//27 66//27 8//27
f 8//28 66//28 59//28
f 67//29 29//29 68//29
f 68//30 29//30 3//30
f 68//31 3//31 35//31
f 4//32 36//32 35//32
f 35//33 36//33 59//33
f 35//34 59//34 68//34
f 67//35 68//35 55//35
f 66//36 55//36 68//36
f 66//37 68//37 59//37
f 32//38 60//38 30//38
f 61//39 60//39 69//39
f 69//40 60//40 32//40
f 70//41 61//41 69//41
f 69//42 32//42 33//42
f 56//43 16//43 57//43
f 56//44 57//44 63//44
f 56//45 63//45 65//45
f 65//46 63//46 62//46
f 55//47 65//47 70//47
f 55//48 70//48 67//48
f 67//49 69//49 33//49
f 65//50 62//50 70//50
f 70//51 69//51 67//51
f 67//52 33//52 29//52
f 36//53 6//53 5//53
f 36//54 5//54 59//54
f 66//55 58//55 55//55
f 55//56 58//56 65//56
f 56//57 42//57 16//57
f 86//58 44//58 71//58
f 48//59 45//59 74//59
f 47//60 18//60 46//60
f 49//61 17//61 75//61
f 76//62 20//62 19//62
f 76//63 19//63 50//63
f 24//64 20//64 76//64
f 77//65 24//65 76//65
f 78//66 23//66 24//66
f 23//67 78//67 22//67
f 22//68 78//68 21//68
f 51//69 21//69 52//69
f 51//70 52//70 2//70
f 2//71 1//71 51//71
f 53//72 52//72 21//72
f 78//73 54//73 53//73
f 79//74 26//74 54//74
f 79//75 54//75 78//75
f 28//76 26//76 79//76
f 79//77 64//77 28//77
f 79//78 63//78 64//78
f 80//79 62//79 63//79
f 81//80 61//80 80//80
f 80//81 61//81 62//81
f 61//82 81//82 60//82
f 43//83 82//83 71//83
f 21//84 78//84 53//84
f 78//85 24//85 77//85
f 49//86 75//86 50//86
f 50//87 75//87 87//87
f 50//88 87//88 76//88
f 76//89 87//89 83//89
f 76//90 83//90 77//90
f 77//91 83//91 84//91
f 79//92 78//92 77//92
f 82//93 86//93 71//93
f 86//94 74//94 44//94
f 44//95 74//95 73//95
f 73//96 74//96 45//96
f 47//97 48//97 74//97
f 85//98 86//98 82//98
f 85//99 82//99 88//99
f 88//100 82//100 43//100
f 85//101 83//101 86//101
f 86//102 83//102 87//102
f 86//103 87//103 74//103
f 74//104 87//104 75//104
f 74//105 75//105 47//105
f 17//106 18//106 47//106
f 17//107 47//107 75//107
f 84//108 83//108 85//108
f 81//109 88//109 72//109
f 72//110 31//110 60//110
f 72//111 60//111 81//111
f 80//112 84//112 81//112
f 81//113 84//113 88//113
f 43//114 72//114 88//114
f 85//115 88//115 84//115
f 77//116 84//116 80//116
f 77//117 80//117 79//117
f 79//118 80//118 63//118
