# Blender v2.79 (sub 0) OBJ File: 'airplane.blend'
# www.blender.org
mtllib airplane2.mtl
o Cube.002
v 0.851328 0.180632 -0.205130
v 0.791853 0.240108 -0.205130
v 0.791853 0.121157 -0.205130
v 0.732378 0.180632 -0.205130
v 0.361653 0.180632 0.474985
v 0.421128 0.121157 0.474985
v 0.421128 0.240108 0.474985
v 0.480604 0.180632 0.474985
v 0.513953 0.180632 0.209012
v 0.513953 0.180632 -0.173545
v 0.421128 0.273457 0.209012
v 0.421128 0.273457 -0.173545
v 0.421128 0.087808 0.209012
v 0.421128 0.087808 -0.173545
v 0.328304 0.180632 0.209012
v 0.328304 0.180632 -0.173545
v 0.092362 0.180632 0.541966
v 0.092362 0.180632 0.890344
v 0.063256 0.180632 0.890344
v 0.063256 0.180632 1.124125
v 0.480604 0.180632 0.209012
v 0.421128 0.240108 0.209012
v 0.421128 0.121157 0.209012
v 0.361653 0.180632 0.209012
v 0.884678 0.180632 -0.471103
v 0.884678 0.180632 -0.853661
v 0.791853 0.273457 -0.471103
v 0.791853 0.273457 -0.853661
v 0.791853 0.087808 -0.471103
v 0.791853 0.087808 -0.853661
v 0.699028 0.180632 -0.471103
v 0.699028 0.180632 -0.853661
v 0.851328 0.180632 -0.471103
v 0.791853 0.240108 -0.471103
v 0.791853 0.121157 -0.471103
v 0.732378 0.180632 -0.471103
v -0.851328 0.180632 -0.205130
v -0.791853 0.240108 -0.205130
v -0.791853 0.121157 -0.205130
v -0.732378 0.180632 -0.205130
v -0.361653 0.180632 0.474985
v -0.421128 0.121157 0.474985
v -0.421128 0.240108 0.474985
v -0.480604 0.180632 0.474985
v -0.513953 0.180632 0.209012
v -0.513953 0.180632 -0.173545
v -0.421128 0.273457 0.209012
v -0.421128 0.273457 -0.173545
v -0.421128 0.087808 0.209012
v -0.421128 0.087808 -0.173545
v -0.328304 0.180632 0.209012
v -0.328304 0.180632 -0.173545
v 0.000000 0.244944 0.890344
v 0.000000 0.116321 0.890344
v 0.000000 0.087808 0.541966
v 0.000000 0.087808 0.890344
v 0.000000 0.273457 0.541966
v 0.000000 0.273457 0.890344
v -0.092362 0.180632 0.541966
v -0.092362 0.180632 0.890344
v -0.063256 0.180632 0.890344
v 0.000000 0.244944 1.124125
v 0.000000 0.116321 1.124125
v -0.063256 0.180632 1.124125
v -0.480604 0.180632 0.209012
v -0.421128 0.240108 0.209012
v -0.421128 0.121157 0.209012
v -0.361653 0.180632 0.209012
v -0.884678 0.180632 -0.471103
v -0.884678 0.180632 -0.853661
v -0.791853 0.273457 -0.471103
v -0.791853 0.273457 -0.853661
v -0.791853 0.087808 -0.471103
v -0.791853 0.087808 -0.853661
v -0.699028 0.180632 -0.471103
v -0.699028 0.180632 -0.853661
v -0.851328 0.180632 -0.471103
v -0.791853 0.240108 -0.471103
v -0.791853 0.121157 -0.471103
v -0.732378 0.180632 -0.471103
vn 0.0000 0.0000 1.0000
vn 0.7071 0.7071 0.0000
vn 0.7071 -0.7071 0.0000
vn -0.7071 -0.7071 0.0000
vn -0.7071 0.7071 0.0000
vn 0.0000 0.0000 -1.0000
vn 0.7089 -0.7053 -0.0000
vn 0.7089 0.7053 -0.0000
vn 0.7129 -0.7012 0.0000
vn 0.7129 0.7012 0.0000
vn -0.7089 -0.7053 -0.0000
vn -0.7089 0.7053 -0.0000
vn -0.7129 -0.7012 0.0000
vn -0.7129 0.7012 0.0000
usemtl Material
s off
f 2//1 4//1 3//1 1//1
f 7//1 5//1 6//1 8//1
f 21//2 22//2 7//2 8//2
f 23//3 21//3 8//3 6//3
f 33//2 34//2 2//2 1//2
f 24//4 23//4 6//4 5//4
f 9//2 10//2 12//2 11//2
f 13//4 15//4 16//4 14//4
f 12//5 16//5 15//5 11//5
f 10//6 14//6 16//6 12//6
f 9//3 13//3 14//3 10//3
f 13//1 9//1 21//1 23//1
f 18//7 56//7 55//7 17//7
f 18//8 17//8 57//8 58//8
f 54//9 19//9 20//9 63//9
f 56//1 18//1 19//1 54//1
f 18//1 58//1 53//1 19//1
f 17//6 55//6 57//6
f 20//1 62//1 63//1
f 19//10 53//10 62//10 20//10
f 22//5 24//5 5//5 7//5
f 15//1 13//1 23//1 24//1
f 9//1 11//1 22//1 21//1
f 11//1 15//1 24//1 22//1
f 35//3 33//3 1//3 3//3
f 36//4 35//4 3//4 4//4
f 25//2 26//2 28//2 27//2
f 29//4 31//4 32//4 30//4
f 28//5 32//5 31//5 27//5
f 26//6 30//6 32//6 28//6
f 25//3 29//3 30//3 26//3
f 29//1 25//1 33//1 35//1
f 34//5 36//5 4//5 2//5
f 31//1 29//1 35//1 36//1
f 25//1 27//1 34//1 33//1
f 27//1 31//1 36//1 34//1
f 38//1 37//1 39//1 40//1
f 43//1 44//1 42//1 41//1
f 65//5 44//5 43//5 66//5
f 67//4 42//4 44//4 65//4
f 77//5 37//5 38//5 78//5
f 68//3 41//3 42//3 67//3
f 45//5 47//5 48//5 46//5
f 49//3 50//3 52//3 51//3
f 48//2 47//2 51//2 52//2
f 46//6 48//6 52//6 50//6
f 45//4 46//4 50//4 49//4
f 49//1 67//1 65//1 45//1
f 60//11 59//11 55//11 56//11
f 60//12 58//12 57//12 59//12
f 54//13 63//13 64//13 61//13
f 56//1 54//1 61//1 60//1
f 60//1 61//1 53//1 58//1
f 59//6 57//6 55//6
f 64//1 63//1 62//1
f 61//14 64//14 62//14 53//14
f 66//2 43//2 41//2 68//2
f 51//1 68//1 67//1 49//1
f 45//1 65//1 66//1 47//1
f 47//1 66//1 68//1 51//1
f 79//4 39//4 37//4 77//4
f 80//3 40//3 39//3 79//3
f 69//5 71//5 72//5 70//5
f 73//3 74//3 76//3 75//3
f 72//2 71//2 75//2 76//2
f 70//6 72//6 76//6 74//6
f 69//4 70//4 74//4 73//4
f 73//1 79//1 77//1 69//1
f 78//2 38//2 40//2 80//2
f 75//1 80//1 79//1 73//1
f 69//1 77//1 78//1 71//1
f 71//1 78//1 80//1 75//1
o Cube.001
v 1.018476 0.112839 -1.018476
v 0.199696 0.112839 -1.018476
v 0.000000 0.112839 1.018476
v -1.018476 0.112839 -1.018476
v -0.199696 0.112839 -1.018476
v 0.000000 0.112839 1.018476
v 0.000000 -0.173943 -1.018476
vn 0.0000 -1.0000 0.0000
vn 0.8180 -0.5696 0.0802
vn -0.8180 -0.5696 0.0802
usemtl Material
s off
f 83//15 86//15 82//15 81//15
f 86//16 87//16 82//16
f 83//15 84//15 85//15 86//15
f 86//17 85//17 87//17
o Cube
v 1.000000 0.110792 -1.000000
v 0.196073 0.110792 -1.000000
v 0.000000 0.110792 1.000000
v -1.000000 0.110792 -1.000000
v -0.196073 0.110792 -1.000000
v 0.000000 0.110792 1.000000
v 0.000000 -0.170788 -1.000000
vn 0.0000 1.0000 0.0000
vn -0.8180 0.5696 -0.0802
vn 0.8180 0.5696 -0.0802
usemtl Material
s off
f 90//18 88//18 89//18 93//18
f 93//19 89//19 94//19
f 90//18 93//18 92//18 91//18
f 93//20 94//20 92//20
